SplineFontDB: 3.2
FontName: Prospero
FullName: Prospero
FamilyName: Prospero
Weight: Regular
Copyright: Copyright (c) 2026, Dave Jeffery (https://kecskebak.hu|info@kecskebak.hu),\nwith Reserved Font Name Prospero.\n\n\nThis Font Software is licensed under the SIL Open Font License, Version 1.1.\nThis license is copied below, and is also available with a FAQ at:\nhttps://openfontlicense.org\n
UComments: "2026-7-19: Created with FontForge (http://fontforge.org)"
Version: 001.000
ItalicAngle: 0
UnderlinePosition: -100
UnderlineWidth: 50
Ascent: 800
Descent: 200
InvalidEm: 0
LayerCount: 2
Layer: 0 0 "Back" 1
Layer: 1 0 "Fore" 0
XUID: [1021 982 318616617 4222588]
FSType: 0
OS2Version: 0
OS2_WeightWidthSlopeOnly: 0
OS2_UseTypoMetrics: 1
CreationTime: 1784451120
ModificationTime: 1784640769
PfmFamily: 17
TTFWeight: 400
TTFWidth: 5
LineGap: 90
VLineGap: 0
OS2TypoAscent: 0
OS2TypoAOffset: 1
OS2TypoDescent: 0
OS2TypoDOffset: 1
OS2TypoLinegap: 90
OS2WinAscent: 0
OS2WinAOffset: 1
OS2WinDescent: 0
OS2WinDOffset: 1
HheadAscent: 0
HheadAOffset: 1
HheadDescent: 0
HheadDOffset: 1
OS2Vendor: 'PfEd'
Lookup: 258 0 0 "'kern' Horizontal Kerning in Latin lookup 0" { "'kern' Horizontal Kerning in Latin lookup 0-1" [150,15,0] } ['kern' ('DFLT' <'dflt' > 'latn' <'dflt' > ) ]
MarkAttachClasses: 1
DEI: 91125
LangName: 1033
Encoding: ISO8859-1
UnicodeInterp: none
NameList: AGL For New Fonts
DisplaySize: -48
AntiAlias: 1
FitToEm: 0
WinInfo: 32 16 4
BeginPrivate: 0
EndPrivate
TeXData: 1 0 0 346030 173015 115343 0 1048576 115343 783286 444596 497025 792723 393216 433062 380633 303038 157286 324010 404750 52429 2506097 1059062 262144
BeginChars: 264 49

StartChar: N
Encoding: 78 78 0
Width: 1000
HStem: -172 10<60.0015 81.7847 224.827 245.998> 688 8<66.0022 71 757.001 773.082 912.629 936>
VStem: 136 49<-127.85 550.997> 815 48<3.00146 667.949>
LayerCount: 2
Fore
SplineSet
219 696 m 5
 219 696 798 6 796 8 c 4
 795 10 804 3 808 3 c 4
 813 3 815 5 815 8 c 6
 815 630 l 6
 815 658 795 679 761 688 c 4
 759 689 757 690 757 692 c 4
 757 694 758 696 761 696 c 6
 936 696 l 5
 936 696 940 695 940 692 c 4
 940 689 936 688 936 688 c 5
 900 688 863 660 863 624 c 6
 863 -172 l 5
 805 -172 l 5
 201 547 l 6
 200 548 196 551 192 551 c 4
 188 551 185 547 185 543 c 6
 185 -86 l 6
 185 -121 216 -162 240 -162 c 4
 244 -162 246 -164 246 -167 c 4
 246 -170 243 -172 240 -172 c 6
 64 -172 l 6
 62 -172 60 -169 60 -167 c 4
 60 -164 62 -162 64 -162 c 4
 94 -162 136 -113 136 -75 c 6
 136 604 l 6
 136 644 71 688 71 688 c 6
 69 688 66 690 66 692 c 4
 66 694 68 696 71 696 c 6
 219 696 l 5
EndSplineSet
Validated: 37
EndChar

StartChar: M
Encoding: 77 77 1
Width: 1000
HStem: -172 10<36.2083 56.3323 187.23 209.996 725.001 742.564 948.622 969.996> 688 8<72.0015 101.92 938.866 964.997>
VStem: 775 110<322.647 525> 791 111<-136.064 192>
LayerCount: 2
Fore
SplineSet
77 696 m 6xe0
 251 696 l 5
 500 24 l 5
 799 696 l 5
 960 696 l 6
 963 696 965 695 965 692 c 4
 965 690 961 688 957 688 c 4
 917 688 884 635 885 601 c 6xe0
 902 -75 l 6
 902 -88 904 -144 961 -162 c 4
 964 -163 970 -164 970 -167 c 4
 970 -170 967 -172 964 -172 c 6
 731 -172 l 6
 726 -172 725 -169 725 -167 c 4
 725 -165 726 -163 728 -162 c 4
 743 -158 788 -147 791 -67 c 5xd0
 775 525 l 5
 465 -195 l 5
 199 517 l 5
 157 -74 l 6
 154 -113 171 -155 198 -162 c 4
 205 -164 210 -164 210 -167 c 4
 210 -171 205 -172 200 -172 c 6
 42 -172 l 6
 39 -172 36 -170 36 -168 c 4
 36 -166 38 -165 40 -164 c 4
 69 -153 100 -140 104 -81 c 6
 147 529 l 6
 150 579 158 688 79 688 c 4
 74 688 72 690 72 692 c 4
 72 694 74 696 77 696 c 6xe0
EndSplineSet
Validated: 33
EndChar

StartChar: L
Encoding: 76 76 2
Width: 774
Flags: W
HStem: -172 51<304.445 550.421> -172 10<98.0015 125.536> 688 8<118.001 131.25 358.88 373.999>
VStem: 182 114<-43.1681 643.524>
LayerCount: 2
Fore
SplineSet
122 696 m 2x70
 371 696 l 2
 373 696 374 694 374 692 c 0
 374 690 373 688 371 688 c 0
 357 688 296 654 296 557 c 2
 296 237 l 2
 296 32 276 -72 304 -100 c 0
 313 -109 354 -121 407 -121 c 0xb0
 425 -121 595 -131 681 -1 c 1
 636 -172 l 1
 103 -172 l 2
 100 -172 98 -170 98 -167 c 0
 98 -165 100 -162 103 -162 c 0
 155 -162 182 -99 182 -60 c 2
 182 614 l 2
 182 649 132 688 122 688 c 0
 120 688 118 689 118 692 c 0
 118 695 120 696 122 696 c 2x70
EndSplineSet
Validated: 33
EndChar

StartChar: K
Encoding: 75 75 3
Width: 952
Flags: W
HStem: -172 10<101.001 124.1 330.611 360.999 599.001 609.968 819.637 843.999> 680 8<112.001 133.713 340.201 363.998> 688 8<602.001 615.004 819.46 839.998>
VStem: 175 114<-135.33 259.997 306 648.957>
LayerCount: 2
Fore
SplineSet
116 680 m 0xd0
 114 680 112 682 112 684 c 0
 112 686 114 688 116 688 c 2
 359 688 l 2
 361 688 364 686 364 684 c 0
 364 682 361 680 359 680 c 0xd0
 304 680 289 602 289 559 c 2
 289 306 l 1
 619 604 l 2
 635 618 641 639 641 654 c 0
 641 675 608 688 606 688 c 0
 604 688 602 690 602 692 c 0
 602 694 604 696 606 696 c 2
 836 696 l 2
 838 696 840 694 840 692 c 0
 840 690 837 688 836 688 c 0xb0
 819 688 761 662 710 616 c 2
 386 324 l 1
 761 -123 l 2
 787 -154 838 -161 840 -162 c 0
 842 -163 844 -165 844 -167 c 0
 844 -169 842 -172 840 -172 c 2
 603 -172 l 2
 601 -172 599 -169 599 -167 c 0
 599 -165 601 -162 603 -162 c 0
 605 -162 616 -154 616 -145 c 0
 616 -136 606 -112 593 -97 c 2
 295 259 l 2
 294 260 294 260 293 260 c 0
 291 260 289 256 289 253 c 2
 289 -104 l 2
 289 -140 325 -162 355 -162 c 0
 359 -162 361 -164 361 -167 c 0
 361 -170 359 -172 355 -172 c 2
 105 -172 l 2
 103 -172 101 -169 101 -167 c 0
 101 -165 103 -162 105 -162 c 0
 135 -162 175 -122 175 -90 c 2
 175 606 l 2
 175 635 153 680 116 680 c 0xd0
EndSplineSet
Validated: 1
EndChar

StartChar: J
Encoding: 74 74 4
Width: 436
Flags: W
HStem: 688 8<98.0015 111.25 328.688 345.999>
VStem: 162 112<-21.8437 654.243>
LayerCount: 2
Fore
SplineSet
102 696 m 2
 342 696 l 2
 344 696 346 695 346 692 c 0
 346 689 344 688 342 688 c 0
 319 688 276 647 276 594 c 2
 274 111 l 2
 272 -172 46 -208 22 -208 c 0
 17 -208 14 -205 14 -201 c 0
 14 -197 19 -195 22 -193 c 0
 115 -135 162 -62 162 159 c 2
 162 614 l 2
 162 649 112 688 102 688 c 0
 100 688 98 689 98 692 c 0
 98 695 100 696 102 696 c 2
EndSplineSet
Validated: 1
EndChar

StartChar: I
Encoding: 73 73 5
Width: 408
Flags: W
HStem: -172 8<82.0015 98.0545 318.392 333.999> 688 8<90.0015 103.25 320.688 337.999>
VStem: 154 114<-130.003 657.204>
LayerCount: 2
Fore
SplineSet
94 696 m 2
 334 696 l 2
 336 696 338 695 338 692 c 0
 338 689 336 688 334 688 c 0
 311 688 268 647 268 594 c 2
 268 -90 l 2
 268 -138 320 -164 330 -164 c 0
 332 -164 334 -165 334 -168 c 0
 334 -171 332 -172 330 -172 c 2
 86 -172 l 2
 84 -172 82 -171 82 -168 c 0
 82 -165 84 -164 86 -164 c 0
 105 -164 154 -123 154 -70 c 2
 154 614 l 2
 154 649 104 688 94 688 c 0
 92 688 90 689 90 692 c 0
 90 695 92 696 94 696 c 2
EndSplineSet
Validated: 1
EndChar

StartChar: H
Encoding: 72 72 6
Width: 1000
HStem: -172 8<71.0015 87.0545 307.392 322.999 673.001 689.054 909.392 924.999> 204 50<257 745> 688 8<79.0015 92.2505 309.688 326.999 681.001 694.25 911.688 928.999>
VStem: 143 114<-130.003 204 254 657.204> 745 114<-130.003 204 254 657.204>
LayerCount: 2
Fore
SplineSet
83 696 m 6
 323 696 l 6
 325 696 327 695 327 692 c 4
 327 689 325 688 323 688 c 4
 300 688 257 647 257 594 c 6
 257 254 l 5
 745 254 l 5
 745 614 l 6
 745 649 695 688 685 688 c 4
 683 688 681 689 681 692 c 4
 681 695 683 696 685 696 c 6
 925 696 l 6
 927 696 929 695 929 692 c 4
 929 689 927 688 925 688 c 4
 902 688 859 647 859 594 c 6
 859 -90 l 6
 859 -138 911 -164 921 -164 c 4
 923 -164 925 -165 925 -168 c 4
 925 -171 923 -172 921 -172 c 6
 677 -172 l 6
 675 -172 673 -171 673 -168 c 4
 673 -165 675 -164 677 -164 c 4
 696 -164 745 -123 745 -70 c 6
 745 204 l 5
 257 204 l 5
 257 -90 l 6
 257 -138 309 -164 319 -164 c 4
 321 -164 323 -165 323 -168 c 4
 323 -171 321 -172 319 -172 c 6
 75 -172 l 6
 73 -172 71 -171 71 -168 c 4
 71 -165 73 -164 75 -164 c 4
 94 -164 143 -123 143 -70 c 6
 143 614 l 6
 143 649 93 688 83 688 c 4
 81 688 79 689 79 692 c 4
 79 695 81 696 83 696 c 6
EndSplineSet
Validated: 1
EndChar

StartChar: G
Encoding: 71 71 7
Width: 1000
HStem: -184 69<450.112 675.289> 207 8<697.001 710.158 926.767 943.999> 658 49<430.81 681.772>
VStem: 84 122<144.744 403.555> 760 115<-67 176.204>
LayerCount: 2
Fore
SplineSet
556 707 m 4
 744 707 814 660 818 658 c 4
 820 657 825 656 830 656 c 4
 835 656 840 654 842 656 c 5
 864 487 l 5
 864 487 778 658 554 658 c 4
 252 658 206 370 206 275 c 4
 206 53 372 -115 562 -115 c 4
 680 -115 760 -67 760 -67 c 5
 760 133 l 6
 760 168 711 207 701 207 c 4
 699 207 697 208 697 211 c 4
 697 214 699 215 701 215 c 6
 940 215 l 6
 942 215 944 214 944 211 c 4
 944 208 942 207 940 207 c 4
 917 207 875 166 875 113 c 6
 875 -57 l 6
 875 -78 719 -184 517 -184 c 4
 139 -184 84 162 84 264 c 4
 84 496 237 707 556 707 c 4
EndSplineSet
Validated: 1
EndChar

StartChar: F
Encoding: 70 70 8
Width: 720
Flags: W
HStem: -173 8<100.001 113.158 337.373 355.833> 268 48<278 551.764> 640 55<279.165 543.533> 685 10<79.0015 106.536>
VStem: 163 115<-124.478 268 316 635.165>
LayerCount: 2
Fore
SplineSet
84 695 m 2xd8
 600 695 l 1xd8
 618 530 l 1
 567 644 504 640 334 640 c 0xe8
 290 640 278 633 278 606 c 2
 278 316 l 1
 470 316 l 2
 531 316 564 334 582 380 c 1
 582 208 l 1
 562 252 524 268 470 268 c 2
 278 268 l 1
 278 -34 l 2
 278 -131 331 -165 352 -165 c 0
 354 -165 356 -166 356 -168 c 0
 356 -170 354 -173 352 -173 c 2
 104 -173 l 2
 102 -173 100 -172 100 -169 c 0
 100 -166 102 -165 104 -165 c 0
 114 -165 163 -125 163 -90 c 2
 163 584 l 2
 163 623 136 685 84 685 c 0
 81 685 79 688 79 690 c 0
 79 693 81 695 84 695 c 2xd8
EndSplineSet
Validated: 33
EndChar

StartChar: E
Encoding: 69 69 9
Width: 768
Flags: W
HStem: -172 56<298.247 555.172> -172 10<97.0015 122.03> 268 48<290 563.764> 640 55<290.654 552.096> 685 10<91.0015 118.536>
VStem: 175 115<316 637.22>
LayerCount: 2
Fore
SplineSet
96 695 m 2x6c
 612 695 l 1x6c
 630 530 l 1
 579 644 520 640 332 640 c 0
 296 640 290 633 290 606 c 2
 290 316 l 1
 482 316 l 2
 543 316 576 334 594 380 c 1
 594 208 l 1
 574 252 536 268 482 268 c 2
 290 268 l 1
 290 268 280 -79 301 -100 c 0
 310 -109 354 -116 407 -116 c 0xb4
 425 -116 594 -129 680 1 c 1
 636 -172 l 1
 102 -172 l 2
 99 -172 97 -170 97 -167 c 0
 97 -165 99 -162 102 -162 c 0
 153 -156 179 -113 179 -71 c 2
 175 584 l 2
 175 623 148 685 96 685 c 0
 93 685 91 688 91 690 c 0
 91 693 93 695 96 695 c 2x6c
EndSplineSet
Validated: 33
EndChar

StartChar: D
Encoding: 68 68 10
Width: 1000
HStem: -172 57<291.351 551.535> -172 10<87.0015 112.03> 642 53<285.726 545.526> 685 10<81.0015 108.536>
VStem: 169 113<-95.8116 633.096> 814 125<117.88 408.345>
LayerCount: 2
Fore
SplineSet
86 695 m 6x5c
 496 695 l 6
 663 695 939 608 939 267 c 4
 939 -91 670 -172 379 -172 c 6xac
 92 -172 l 6
 89 -172 87 -170 87 -167 c 4
 87 -165 89 -162 92 -162 c 4
 143 -156 169 -113 169 -71 c 6
 165 584 l 6
 165 623 138 685 86 685 c 4
 83 685 81 688 81 690 c 4
 81 693 83 695 86 695 c 6x5c
350 642 m 4
 314 642 282 633 282 606 c 6
 282 -36 l 6
 282 -87 287 -92 291 -96 c 4
 298 -103 336 -115 379 -115 c 4
 706 -115 814 53 814 267 c 4
 814 582 572 642 350 642 c 4
EndSplineSet
Validated: 1
EndChar

StartChar: C
Encoding: 67 67 11
Width: 940
Flags: W
HStem: -184 69<437.975 676.903> 658 53<407.24 675.405>
VStem: 72 122<145.578 403.997>
LayerCount: 2
Fore
SplineSet
544 711 m 0
 732 711 802 660 806 658 c 0
 808 657 813 656 818 656 c 0
 823 656 828 654 830 656 c 1
 856 488 l 1
 856 488 778 658 542 658 c 0
 240 658 194 407 194 275 c 0
 194 53 360 -115 550 -115 c 0
 703 -115 783 -76 850 -48 c 1
 841 -87 l 1
 841 -87 719 -184 517 -184 c 0
 157 -184 72 145 72 264 c 0
 72 496 225 711 544 711 c 0
EndSplineSet
Validated: 1
EndChar

StartChar: B
Encoding: 66 66 12
Width: 832
Flags: W
HStem: -172 54<294.008 518.28> -172 10<89.0015 114.03> 289 53<280 443.726> 646 49<288.324 484.331> 685 10<83.0015 110.536>
VStem: 171 109<15.3729 289 343.365 633.096> 555 112<433.858 584.819> 619 118<-19.151 158.057>
LayerCount: 2
Fore
SplineSet
88 695 m 2x6d
 464 695 l 2
 613 695 667 610 667 518 c 0x36
 667 385 552 350 495 326 c 0
 492 325 491 324 491 322 c 0
 491 320 493 319 495 318 c 0
 734 254 737 99 737 53 c 0
 737 -11 702 -172 454 -172 c 2xb5
 94 -172 l 2
 91 -172 89 -170 89 -167 c 0
 89 -165 91 -162 94 -162 c 0
 145 -156 171 -113 171 -71 c 2
 167 584 l 2
 167 623 140 685 88 685 c 0
 85 685 83 688 83 690 c 0
 83 693 85 695 88 695 c 2x6d
391 646 m 0
 321 646 282 635 282 608 c 0
 282 570 280 487 280 345 c 1
 296 344 316 342 319 342 c 0
 542 342 555 480 555 508 c 0
 555 624 451 646 391 646 c 0
394 289 m 2
 280 289 l 1
 280 107 277.666015625 -78.359375 294 -96 c 0
 319 -123 380 -118 417 -118 c 0
 572 -118 619 -16 619 83 c 0xa5
 619 217 472 289 394 289 c 2
EndSplineSet
Validated: 524321
EndChar

StartChar: A
Encoding: 65 65 13
Width: 1000
HStem: -172 10<96.0022 118.25 272.254 288.999 672.001 684.919 896.536 916.999> 142 51<346 589> 697 20G<474.723 490.471>
LayerCount: 2
Fore
SplineSet
482 717 m 5
 820 -81 l 6
 841 -131 898 -162 913 -162 c 4
 915 -162 917 -165 917 -167 c 4
 917 -169 916 -172 913 -172 c 6
 676 -172 l 6
 674 -172 672 -169 672 -167 c 4
 672 -165 674 -162 676 -162 c 4
 685 -162 705 -137 705 -120 c 4
 705 -92 701 -71 692 -49 c 6
 611 142 l 5
 327 142 l 5
 246 -80 l 5
 246 -80 241 -103 241 -117 c 4
 241 -145 280 -162 284 -162 c 4
 287 -162 289 -164 289 -167 c 4
 289 -170 287 -172 284 -172 c 6
 102 -172 l 6
 99 -172 96 -170 96 -167 c 4
 96 -164 99 -162 102 -162 c 4
 130 -162 182 -108 196 -69 c 6
 482 717 l 5
458 502 m 5
 346 193 l 5
 589 193 l 5
 458 502 l 5
EndSplineSet
Validated: 1
EndChar

StartChar: O
Encoding: 79 79 14
Width: 1000
HStem: -190 56<397.086 629.856> 649 47<380.946 596.504>
VStem: 49 134<122.55 391.994> 830 118<116.331 379.344>
LayerCount: 2
Fore
SplineSet
503 696 m 4
 805 687 951 452 948 239 c 4
 945 34 789 -192 507 -190 c 4
 193 -187 47 49 49 264 c 4
 51 473 218 705 503 696 c 4
485 649 m 4
 259 649 177 420 183 254 c 4
 189 86 262 -134 514 -134 c 4
 754 -134 832 90 830 255 c 4
 828 430 716 649 485 649 c 4
EndSplineSet
Validated: 33
EndChar

StartChar: P
Encoding: 80 80 15
Width: 860
Flags: W
HStem: -172 10<99.0015 126.143 338.541 361.999> 167 54<290 495.437> 644 51<292.911 497.521> 685 10<99.0015 124.03>
VStem: 177 113<-132.127 167 221 634.324> 629 122<350.738 532.156>
LayerCount: 2
Fore
SplineSet
104 695 m 2xdc
 464 695 l 2xec
 712 695 752 534 751 470 c 0
 746 193 507 166 331 167 c 0
 328 167 306 168 290 167 c 1
 290 25 292 -47 292 -85 c 0
 292 -112 322 -162 358 -162 c 0
 360 -162 362 -164 362 -167 c 0
 362 -170 360 -172 358 -172 c 2
 104 -172 l 2
 101 -172 99 -170 99 -167 c 0
 99 -165 101 -162 104 -162 c 0
 156 -162 177 -99 177 -60 c 2
 181 594 l 2
 181 636 155 679 104 685 c 0
 101 685 99 688 99 690 c 0
 99 693 101 695 104 695 c 2xdc
365 644 m 0
 343 644 290 638 290 613 c 0
 290 591 290 403 290 221 c 1
 404 221 l 2
 482 221 629 283 629 441 c 0
 629 498 607 644 365 644 c 0
EndSplineSet
Validated: 33
EndChar

StartChar: Q
Encoding: 81 81 16
Width: 1000
HStem: -261 41<641.293 791.023> -146 33<132.346 239.065> 649 47<386.493 598.637>
VStem: 49 128<120.188 391.994> 832 122<116.679 379.344>
LayerCount: 2
Fore
SplineSet
505 696 m 4
 807 687 957 452 954 239 c 4
 952 53 820 -148 586 -183 c 5
 649 -202 686 -220 734 -220 c 4
 755 -220 794 -212 794 -212 c 5
 793 -240 l 5
 793 -240 722 -261 684 -261 c 4
 505 -259 441 -146 195 -146 c 4
 172 -146 132 -154 132 -154 c 5
 132 -125 l 5
 139 -125 170 -116 243 -113 c 5
 111 -26 48 123 49 264 c 4
 51 473 203 705 505 696 c 4
487 649 m 4
 261 649 177 420 177 254 c 4
 177 82 264 -138 516 -138 c 4
 756 -138 834 90 832 255 c 4
 830 430 718 649 487 649 c 4
EndSplineSet
Validated: 33
EndChar

StartChar: R
Encoding: 82 82 17
Width: 952
Flags: W
HStem: -172 10<105.001 132.143 344.541 367.999 830.482 859.998> 231 52<296 374.427> 644 51<298.911 494.158> 685 10<105.001 130.03>
VStem: 187 109<-125.625 231 283 634.324> 592 127<396.248 561.175>
LayerCount: 2
Fore
SplineSet
110 695 m 2xdc
 470 695 l 2xec
 662 695 719 551 719 487 c 0
 719 359 614 284 490 251 c 0
 490 251 485 247 485 242 c 0
 485 237 491 233 491 233 c 0
 512 222 538 201 568 164 c 0
 682 23 771 -162 854 -162 c 0
 857 -162 860 -164 860 -167 c 0
 860 -170 857 -172 854 -172 c 2
 686 -172 l 1
 422 170 l 1
 422 170 370 231 333 231 c 0
 330 231 328 231 327 231 c 0
 320 231 308 232 296 231 c 1
 296 89 298 -47 298 -85 c 0
 298 -112 328 -162 364 -162 c 0
 366 -162 368 -164 368 -167 c 0
 368 -170 366 -172 364 -172 c 2
 110 -172 l 2
 107 -172 105 -170 105 -167 c 0
 105 -165 107 -162 110 -162 c 0
 162 -162 183 -99 183 -60 c 2
 187 594 l 2
 187 636 161 679 110 685 c 0
 107 685 105 688 105 690 c 0
 105 693 107 695 110 695 c 2xdc
371 644 m 0
 349 644 296 638 296 613 c 0
 296 591 296 465 296 283 c 1
 354 283 l 2
 502 283 592 356 592 479 c 0
 592 536 568 644 371 644 c 0
EndSplineSet
Validated: 1
EndChar

StartChar: S
Encoding: 83 83 18
Width: 732
Flags: W
HStem: -180 50<234.96 423.857> 668 51<287.197 470.37>
VStem: 110 116<458.805 597.36> 510 112<-40.3978 108.429>
LayerCount: 2
Fore
SplineSet
584 673 m 1
 582 521 l 1
 582 521 536 668 374 668 c 0
 229 668 226 546 226 536 c 0
 226 473 250 428 391 346 c 0
 552 253 622 195 622 55 c 0
 622 -85 499 -180 326 -180 c 0
 168 -180 96 -114 96 -114 c 1
 89 39 l 1
 89 39 170 -130 328 -130 c 0
 486 -130 510 1 510 31 c 0
 510 62 523 136 291 262 c 0
 174 325 110 427 110 512 c 0
 110 628 218 719 368 719 c 0
 498 719 584 673 584 673 c 1
EndSplineSet
Validated: 33
EndChar

StartChar: T
Encoding: 84 84 19
Width: 924
Flags: W
HStem: -172 8<336.001 352.054 571.656 587.999> 649 47<186.8 408 516 752.146>
VStem: 408 108<-130.003 649>
LayerCount: 2
Fore
SplineSet
136 696 m 1
 811 696 l 1
 796 549 l 1
 777 615 761 649 654 649 c 2
 516 649 l 1
 516 -90 l 2
 516 -138 574 -164 584 -164 c 0
 586 -164 588 -165 588 -168 c 0
 588 -171 586 -172 584 -172 c 2
 340 -172 l 2
 338 -172 336 -171 336 -168 c 0
 336 -165 338 -164 340 -164 c 0
 359 -164 408 -123 408 -70 c 2
 408 649 l 1
 277 649 l 2
 237 649 150 630 105 553 c 1
 136 696 l 1
EndSplineSet
Validated: 1
EndChar

StartChar: U
Encoding: 85 85 20
Width: 1000
HStem: -187 69<379.047 587.504> -172 8<902.392 917.999> 688 8<76.0015 89.2505 306.688 323.999 674.001 687.25 904.688 921.999>
VStem: 140 114<9.89994 657.204> 738 114<-140.032 -85 -24.9633 657.204>
LayerCount: 2
Fore
SplineSet
80 696 m 6xb8
 320 696 l 6
 322 696 324 695 324 692 c 4
 324 689 322 688 320 688 c 4
 297 688 254 647 254 594 c 6
 254 142 l 6
 254 -60 362 -118 504 -118 c 4xb8
 671 -118 727 -17 738 14 c 5
 738 614 l 6
 738 649 688 688 678 688 c 4
 676 688 674 689 674 692 c 4
 674 695 676 696 678 696 c 6
 918 696 l 6
 920 696 922 695 922 692 c 4
 922 689 920 688 918 688 c 4
 895 688 852 647 852 594 c 6
 852 -90 l 6
 852 -138 904 -164 914 -164 c 4
 916 -164 918 -165 918 -168 c 4
 918 -171 916 -172 914 -172 c 6
 737 -172 l 5x78
 737 -85 l 5
 722 -99 621 -187 447 -187 c 4
 191 -187 140 -31 140 94 c 6
 140 614 l 6
 140 649 90 688 80 688 c 4
 78 688 76 689 76 692 c 4
 76 695 78 696 80 696 c 6xb8
EndSplineSet
Validated: 1
EndChar

StartChar: V
Encoding: 86 86 21
Width: 1000
HStem: 688 8<80.0015 96.5818 323.734 337.999 724.001 741.465 898.28 917.999>
LayerCount: 2
Fore
SplineSet
84 696 m 6
 334 696 l 6
 336 696 338 695 338 692 c 4
 338 689 336 688 334 688 c 4
 323 688 298 666 298 647 c 4
 298 627 302 611 307 598 c 6
 539 25 l 5
 765 614 l 6
 774 639 756 688 728 688 c 4
 726 688 724 689 724 692 c 4
 724 695 726 696 728 696 c 6
 914 696 l 6
 916 696 918 695 918 692 c 4
 918 689 916 688 914 688 c 4
 891 688 852 658 830 604 c 6
 567 -46 l 5
 508 -192 l 5
 182 614 l 6
 164 658 94 688 84 688 c 4
 82 688 80 689 80 692 c 4
 80 695 82 696 84 696 c 6
EndSplineSet
Validated: 33
EndChar

StartChar: W
Encoding: 87 87 22
Width: 1404
Flags: W
HStem: 686 8<102.001 126.055 345.734 359.999 561.001 589.817 796.143 813.999 1102 1117.8 1282.15 1300>
LayerCount: 2
Fore
SplineSet
106 694 m 6
 356 694 l 6
 358 694 360 693 360 690 c 4
 360 687 358 686 356 686 c 4
 345 686 320 664 320 645 c 4
 320 625 325 610 329 596 c 4
 381 414 440 233 494 51 c 5
 663 527 l 6
 668 540 668 570 649 612 c 4
 629 655 611 686 565 686 c 4
 563 686 561 687 561 690 c 4
 561 693 563 694 565 694 c 6
 810 694 l 6
 812 694 814 693 814 690 c 4
 814 687 812 686 810 686 c 4
 799 686 763 670 763 641 c 4
 763 626 768 603 770 596 c 6
 936 51 l 5
 1135 611 l 6
 1144 636 1134 686 1106 686 c 4
 1104 686 1102 687 1102 690 c 4
 1102 693 1104 694 1106 694 c 6
 1296 694 l 6
 1298 694 1300 693 1300 690 c 4
 1300 687 1298 686 1296 686 c 4
 1273 686 1203 638 1183 583 c 6
 900 -218 l 5
 692 461 l 5
 455 -206 l 5
 218 569 l 6
 182 685 109 686 106 686 c 4
 104 686 102 687 102 690 c 4
 102 693 104 694 106 694 c 6
EndSplineSet
Validated: 33
EndChar

StartChar: X
Encoding: 88 88 23
Width: 1000
HStem: -172 8<90.0015 112.273 264.16 283.999 660.001 683.625 894.194 908.999> 688 8<112.001 127.595 350.821 369.999 724.001 739.394 893.161 917.999>
LayerCount: 2
Fore
SplineSet
116 696 m 6
 366 696 l 6
 368 696 370 695 370 692 c 4
 370 689 368 688 366 688 c 4
 355 688 331 678 331 658 c 4
 331 646 351 612 359 600 c 6
 535 328 l 5
 733 621 l 6
 748 643 756 688 728 688 c 4
 726 688 724 689 724 692 c 4
 724 695 726 696 728 696 c 6
 914 696 l 6
 916 696 918 695 918 692 c 4
 918 689 916 688 914 688 c 4
 891 688 822 663 789 615 c 6
 565 283 l 5
 804 -85 l 6
 830 -125 895 -164 905 -164 c 4
 907 -164 909 -165 909 -168 c 4
 909 -171 907 -172 905 -172 c 6
 664 -172 l 6
 662 -172 660 -171 660 -168 c 4
 660 -165 662 -164 664 -164 c 4
 675 -164 695 -161 695 -142 c 4
 695 -128 668 -86 660 -74 c 6
 476 210 l 5
 256 -115 l 6
 241 -137 252 -164 280 -164 c 4
 282 -164 284 -165 284 -168 c 4
 284 -171 282 -172 280 -172 c 6
 94 -172 l 6
 92 -172 90 -171 90 -168 c 4
 90 -165 92 -164 94 -164 c 4
 117 -164 179 -133 212 -85 c 6
 444 259 l 5
 214 614 l 6
 186 658 126 688 116 688 c 4
 114 688 112 689 112 692 c 4
 112 695 114 696 116 696 c 6
EndSplineSet
Validated: 33
EndChar

StartChar: Y
Encoding: 89 89 24
Width: 1000
Flags: W
HStem: -172 8<372.001 388.054 608.392 623.999> 686 8<100.001 116.452 330.857 349.999 739.001 754.136 889.693 913.999>
VStem: 444 114<-130.003 221>
LayerCount: 2
Fore
SplineSet
104 694 m 6
 346 694 l 6
 348 694 350 693 350 690 c 4
 350 687 348 686 346 686 c 4
 335 686 320 681 320 658 c 4
 320 640 340 607 348 595 c 6
 540 288 l 5
 747 619 l 6
 754 630 761 647 761 661 c 4
 761 674 757 686 743 686 c 4
 741 686 739 687 739 690 c 4
 739 693 741 694 743 694 c 6
 910 694 l 6
 912 694 914 693 914 690 c 4
 914 687 912 686 910 686 c 4
 887 686 835 663 804 613 c 6
 558 221 l 5
 558 -90 l 6
 558 -138 610 -164 620 -164 c 4
 622 -164 624 -165 624 -168 c 4
 624 -171 622 -172 620 -172 c 6
 376 -172 l 6
 374 -172 372 -171 372 -168 c 4
 372 -165 374 -164 376 -164 c 4
 395 -164 444 -123 444 -70 c 6
 444 237 l 5
 435 250 l 5
 210 611 l 6
 182 655 114 686 104 686 c 4
 102 686 100 687 100 690 c 4
 100 693 102 694 104 694 c 6
EndSplineSet
Validated: 1
EndChar

StartChar: Z
Encoding: 90 90 25
Width: 1000
HStem: -172 56<273 771.54> 644 56<237.813 716>
LayerCount: 2
Fore
SplineSet
919 696 m 5
 273 -116 l 5
 629 -116 l 6
 759 -116 815 -91 930 17 c 5
 851 -180 l 5
 851 -180 855 -172 743 -172 c 6
 75 -172 l 6
 73 -172 71 -173 71 -169 c 4
 71 -167 75 -162 75 -162 c 5
 716 644 l 5
 356 644 l 6
 195 644 107 538 107 538 c 5
 182 700 l 5
 305 696 919 696 919 696 c 5
EndSplineSet
Validated: 37
EndChar

StartChar: one
Encoding: 49 49 26
Width: 524
Flags: W
HStem: -172 8<152.001 168.054 392.392 407.999> 629 19<126.045 163.479> 676 20G<254.917 345>
VStem: 224 118<-130.003 606.51>
LayerCount: 2
Fore
SplineSet
133 648 m 6
 342 696 l 5
 348 529 342 193 342 -90 c 4
 342 -138 394 -164 404 -164 c 4
 406 -164 408 -165 408 -168 c 4
 408 -171 406 -172 404 -172 c 6
 156 -172 l 6
 154 -172 152 -171 152 -168 c 4
 152 -165 154 -164 156 -164 c 4
 175 -164 224 -123 224 -70 c 6
 222 534 l 6
 222 584 215 629 132 629 c 4
 130 629 126 636 126 639 c 4
 126 642 131 647 133 648 c 6
EndSplineSet
Validated: 33
EndChar

StartChar: two
Encoding: 50 50 27
Width: 1000
HStem: -176.242 59.7422<320.171 673.888> 628.5 71.5<364.459 559.076>
VStem: 645.114 119.386<358.029 539.772>
LayerCount: 2
Fore
SplineSet
223.506835938 -104.557617188 m 1
 538.754882812 221.891601562 l 1
 538.754882812 221.891601562 645.114257812 332.029296875 645.114257812 457.78515625 c 0
 645.114257812 512.814453125 615.75 628.5 460.25 628.5 c 0
 304.75 628.5 231.75 529 231.75 529 c 1
 233.75 595.5 l 1
 233.75 595.5 319.971679688 700 484.75 700 c 0
 701.5 700 761.359254993 561.707565248 764.5 445.5 c 0
 768 316 686.042533945 240.042533945 639 193 c 0
 527 81 320.170898438 -116.5 320.170898438 -116.5 c 1
 588.341796875 -116.5 l 2
 685.921875 -116.5 770.75 -27.75 770.75 -27.75 c 1
 725.482421875 -176.2421875 l 1
 666.084960938 -172 223.506835938 -172 223.506835938 -172 c 1
 223.506835938 -104.557617188 l 1
EndSplineSet
Validated: 524321
EndChar

StartChar: three
Encoding: 51 51 28
Width: 1000
HStem: -188 53<369.875 540.734> 315 40<518 542.161> 627 61<345.55 595>
VStem: 645 120<-23.1981 193.356>
LayerCount: 2
Fore
SplineSet
303 688 m 5
 451 684 582 685 726 688 c 5
 518 355 l 5
 548 355 765 320 765 94 c 4
 765 -132 568 -188 480 -188 c 4
 321 -188 238 -74 238 -74 c 5
 254 -28 l 5
 254 -28 352 -135 452 -135 c 4
 528 -135 645 -87 645 71 c 4
 645 229 555 315 483 315 c 6
 401 315 l 5
 595 626 l 5
 459 627 l 6
 379 627 274 588 259 539 c 4
 244 490 303 688 303 688 c 5
EndSplineSet
Validated: 33
EndChar

StartChar: four
Encoding: 52 52 29
Width: 1000
HStem: -172 8<490.15 506.075 729.993 745.625> 53 61.1055<307.951 560.891 681.002 789.795>
VStem: 561.535 118.701<-129.597 53 114.105 501.512>
LayerCount: 2
Fore
SplineSet
680.236328125 696 m 5
 684.913085938 567.977539062 682.420898438 340.63671875 681.001953125 114.10546875 c 5
 790.609375 114.10546875 l 5
 789.794921875 53 l 5
 680.650390625 53 l 5
 680.40234375 4.6357421875 680.236328125 -43.2763671875 680.236328125 -89.75 c 4
 680.236328125 -137.256835938 731.374023438 -164 741.626953125 -164 c 4
 743.129882812 -164 745.626953125 -165.426757812 745.626953125 -168 c 4
 745.626953125 -170.635742188 743.701171875 -172 741.626953125 -172 c 6
 494.1484375 -172 l 6
 492.07421875 -172 490.1484375 -170.635742188 490.1484375 -168 c 4
 490.1484375 -165.426757812 492.64453125 -164 494.1484375 -164 c 4
 512.885742188 -164 561.71875 -122.262695312 561.53515625 -69.75 c 6
 561.10546875 53 l 5
 215.994140625 53 l 5
 213.912109375 114.10546875 l 5
 576.345703125 672.203125 l 5
 576.345703125 672.203125 680.36328125 696 680.236328125 696 c 5
559.53515625 501.51171875 m 5
 307.951171875 114.10546875 l 5
 560.890625 114.10546875 l 5
 559.53515625 501.51171875 l 5
EndSplineSet
Validated: 524325
EndChar

StartChar: five
Encoding: 53 53 30
Width: 1000
HStem: -185 54<368.367 550.226> 316 53<367.423 544.102> 628 60<410 536>
VStem: 647 122<-6.32738 202.022>
LayerCount: 2
Fore
SplineSet
729 536 m 5
 677 626 536 628 536 628 c 5
 410 628 l 5
 367 354 l 5
 367 354 414 369 456 369 c 4
 608 369 769 286 769 103 c 4
 769 -80 616 -185 456 -185 c 4
 343 -185 233 -73 233 -73 c 5
 249 -26 l 5
 249 -26 346 -131 456 -131 c 4
 566 -131 647 -60 647 80 c 4
 647 220 580 316 456 316 c 4
 358 316 263 259 263 259 c 5
 331 688 l 5
 679 688 l 5
 729 536 l 5
EndSplineSet
Validated: 1
EndChar

StartChar: six
Encoding: 54 54 31
Width: 1000
HStem: -182 49<427.728 600.617> 314 50<419.146 589.139> 652 50<512.15 720.007>
VStem: 198 123<48.8778 295.455 301 375.514> 681 117<-1.59302 204.304>
LayerCount: 2
Fore
SplineSet
572 702 m 4
 649 702 720 685 720 685 c 5
 722 629 l 5
 722 629 698 652 604 652 c 4
 461 652 326 508 326 301 c 5
 326 301 396 364 528 364 c 4
 730 364 798 201 798 95 c 4
 798 22 740 -182 516 -182 c 4
 292 -182 198 4 198 203 c 4
 198 523 388 702 572 702 c 4
510 314 m 4
 377 314 321 208 321 115 c 4
 321 22 359 -133 510 -133 c 4
 661 -133 680 -11 681 85 c 4
 682 181 643 314 510 314 c 4
EndSplineSet
Validated: 33
EndChar

StartChar: seven
Encoding: 55 55 32
Width: 1000
HStem: -172 21G<359 504> -172 21G<359 504> 628 60<294.342 676>
VStem: 359 145<-171 -102.003>
LayerCount: 2
Fore
SplineSet
359 -171 m 5xb0
 355 -117 676 628 676 628 c 5
 382 628 l 6
 279 628 216 541 216 541 c 5
 259 688 l 5
 794 688 l 5
 794 688 504 39 504 -172 c 5
 359 -171 l 5xb0
EndSplineSet
Validated: 33
EndChar

StartChar: eight
Encoding: 56 56 33
Width: 1000
HStem: -172 50<418.046 573.665> 655 54<413.986 588.741>
VStem: 242 89<-39.1122 139.887> 266 98<483.307 592.653> 644 82<450.192 603.405> 650 106<-24.6994 103.38>
LayerCount: 2
Fore
SplineSet
493 709 m 4xd0
 690 709 726 570 726 529 c 4xd8
 726 398 587 320 582 318 c 4
 580 317 578 314 578 311 c 4
 578 308 584 306 585 305 c 6
 585 305 756 215 756 71 c 4
 756 -41 674 -172 486 -172 c 4
 310 -172 242 -65 242 46 c 4xe4
 242 151 284 208 410 285 c 5
 376 317 266 392 266 505 c 4
 266 618 365 709 493 709 c 4xd0
494 655 m 4
 423 655 364 613 364 547 c 4
 364 449 529 340 535 339 c 5
 535 339 644 423 644 538 c 4
 644 635 557 655 494 655 c 4
452 257 m 5
 405 209 331 164 331 41 c 4
 331 -62 416 -120 492 -122 c 4
 527 -123 650 -105 650 23 c 4xe4
 650 144 520 203 452 257 c 5
EndSplineSet
Validated: 33
EndChar

StartChar: nine
Encoding: 57 57 34
Width: 1000
HStem: -177 50<277.993 485.85> 160 51<409.361 579.267> 658 48<397.883 570.711>
VStem: 200 118<320.034 525.593> 677 123<148.529 223 229.545 476.035>
LayerCount: 2
Fore
SplineSet
426 -177 m 4
 349 -177 278 -160 278 -160 c 5
 276 -104 l 5
 276 -104 300 -127 394 -127 c 4
 537 -127 672 16 672 223 c 5
 672 223 602 160 470 160 c 4
 268 160 200 323 200 429 c 4
 200 502 258 706 482 706 c 4
 706 706 800 521 800 322 c 4
 800 2 610 -177 426 -177 c 4
489 211 m 4
 622 211 677 317 677 410 c 4
 677 503 640 658 489 658 c 4
 338 658 319 535 318 439 c 4
 317 343 356 211 489 211 c 4
EndSplineSet
Validated: 33
EndChar

StartChar: zero
Encoding: 48 48 35
Width: 1000
HStem: -172 50<424.624 581.378> 656 50<432.864 570.55>
VStem: 185 116<102.76 413.887> 698 117<101.002 416.034>
LayerCount: 2
Fore
SplineSet
507 706 m 4
 712 706 815 446 815 256 c 4
 815 66 715 -172 507 -172 c 4
 299 -172 185 49 185 256 c 4
 185 463 302 706 507 706 c 4
504 656 m 4
 359 656 301 441 301 257 c 4
 301 73 340 -122 504 -122 c 4
 668 -122 698 88 698 257 c 4
 698 426 649 656 504 656 c 4
EndSplineSet
Validated: 1
EndChar

StartChar: comma
Encoding: 44 44 36
Width: 1000
HStem: -250 28<437 459.567>
VStem: 485 80<-186.525 -90>
LayerCount: 2
Fore
SplineSet
500 -38 m 4
 545 -38 565 -73 565 -107 c 4
 565 -172 521 -250 437 -250 c 5
 437 -222 l 5
 457 -222 485 -184 485 -168 c 4
 485 -160 480 -159 474 -156 c 4
 452 -146 438 -124 438 -100 c 4
 438 -66 466 -38 500 -38 c 4
EndSplineSet
Validated: 1
EndChar

StartChar: period
Encoding: 46 46 37
Width: 1000
HStem: -162 124<453.2 546.8>
VStem: 438 124<-146.8 -53.2003>
LayerCount: 2
Fore
SplineSet
562 -100 m 4
 562 -134 534 -162 500 -162 c 4
 466 -162 438 -134 438 -100 c 4
 438 -66 466 -38 500 -38 c 4
 534 -38 562 -66 562 -100 c 4
EndSplineSet
Validated: 1
EndChar

StartChar: colon
Encoding: 58 58 38
Width: 400
Flags: W
HStem: -162 124<143.2 236.8> 208 124<143.2 236.8>
VStem: 128 124<-146.8 -53.2003 223.2 316.8>
LayerCount: 2
Fore
SplineSet
190 332 m 0
 224 332 252 304 252 270 c 0
 252 236 224 208 190 208 c 0
 156 208 128 236 128 270 c 0
 128 304 156 332 190 332 c 0
190 -38 m 0
 224 -38 252 -66 252 -100 c 0
 252 -134 224 -162 190 -162 c 0
 156 -162 128 -134 128 -100 c 0
 128 -66 156 -38 190 -38 c 0
EndSplineSet
Validated: 1
EndChar

StartChar: semicolon
Encoding: 59 59 39
Width: 400
Flags: W
HStem: -244 27<142 164.567> 208 124<154.2 247.8>
VStem: 139 124<223.2 316.8> 190 80<-180.632 -84>
LayerCount: 2
Fore
SplineSet
201 332 m 0xe0
 235 332 263 304 263 270 c 0
 263 236 235 208 201 208 c 0
 167 208 139 236 139 270 c 0
 139 304 167 332 201 332 c 0xe0
205 -32 m 0
 250 -32 270 -67 270 -101 c 0
 270 -166 226 -244 142 -244 c 1
 142 -217 l 1
 162 -217 190 -178 190 -162 c 0xd0
 190 -154 185 -153 179 -150 c 0
 157 -140 143 -118 143 -94 c 0
 143 -60 171 -32 205 -32 c 0
EndSplineSet
Validated: 1
EndChar

StartChar: exclam
Encoding: 33 33 40
Width: 1000
HStem: -172 124<453.2 546.8> 669 20G<484 516>
VStem: 438 124<-156.8 -63.2003 512.895 672.5>
LayerCount: 2
Fore
SplineSet
500 689 m 4
 532 689 557 664 557 632 c 4
 557 630 557 628 557 626 c 6
 528 12 l 5
 476 12 l 5
 443 626 l 4
 443 628 443 630 443 632 c 4
 443 664 468 689 500 689 c 4
562 -110 m 4
 562 -144 534 -172 500 -172 c 4
 466 -172 438 -144 438 -110 c 4
 438 -76 466 -48 500 -48 c 4
 534 -48 562 -76 562 -110 c 4
EndSplineSet
Validated: 5
EndChar

StartChar: quotesingle
Encoding: 39 39 41
Width: 1000
HStem: 484 28<436 458.567> 676 20G<482 521.5>
VStem: 484 80<547.475 644>
LayerCount: 2
Fore
SplineSet
499 696 m 4
 544 696 564 661 564 627 c 4
 564 562 520 484 436 484 c 5
 436 512 l 5
 456 512 484 550 484 566 c 4
 484 574 479 575 473 578 c 4
 451 588 437 610 437 634 c 4
 437 668 465 696 499 696 c 4
EndSplineSet
Validated: 1
EndChar

StartChar: question
Encoding: 63 63 42
Width: 1000
HStem: -172 124<453.2 546.8> 643 53<440.19 612.479>
VStem: 438 124<-156.8 -63.2003> 476 52<12 142.824> 702 115<373.734 543.887>
LayerCount: 2
Fore
SplineSet
532 696 m 4xd8
 615 696 817 659 817 464 c 4
 817 258 582 167 533 134 c 5
 528 12 l 5
 476 12 l 5
 468 164 l 5
 468 164 702 299 702 458 c 4
 702 528 647 643 538 643 c 4
 388 643 296 502 296 502 c 5
 313 639 l 5
 383 672 449 696 532 696 c 4xd8
500 -48 m 4
 534 -48 562 -76 562 -110 c 4
 562 -144 534 -172 500 -172 c 4
 466 -172 438 -144 438 -110 c 4xe8
 438 -76 466 -48 500 -48 c 4
EndSplineSet
Validated: 1
EndChar

StartChar: hyphen
Encoding: 45 45 43
Width: 1000
HStem: 234 43<404 596>
VStem: 404 192<234 277>
LayerCount: 2
Fore
SplineSet
404 234 m 5
 404 277 l 5
 596 277 l 5
 596 234 l 5
 404 234 l 5
EndSplineSet
Validated: 1
EndChar

StartChar: parenleft
Encoding: 40 40 44
Width: 1000
VStem: 386 114<82.186 418.354>
LayerCount: 2
Fore
SplineSet
614 726 m 4
 622 718 499 612 500 235 c 4
 501 -142 611 -215 604 -222 c 4
 597 -229 385 -83 386 250 c 4
 387 583 605 735 614 726 c 4
EndSplineSet
Validated: 33
EndChar

StartChar: parenright
Encoding: 41 41 45
Width: 1000
VStem: 500 114<82.186 418.354>
LayerCount: 2
Fore
SplineSet
386 726 m 4
 395 735 613 583 614 250 c 4
 615 -83 403 -229 396 -222 c 4
 389 -215 499 -142 500 235 c 4
 501 612 378 718 386 726 c 4
EndSplineSet
Validated: 33
EndChar

StartChar: ampersand
Encoding: 38 38 46
Width: 1000
HStem: -178 80<339.881 499.193 743.5 874> 314 15<621.012 642.72 810.559 840.392> 656 49<410.45 536.972>
VStem: 135 105<6.15271 146.322> 273 105<450.079 595.411> 566 91<491.889 627.707> 686 155<209.5 326>
LayerCount: 2
Fore
SplineSet
476 705 m 4
 569 705 657 660 657 546 c 4
 657 422 467 348 464 346 c 4
 460 343 458 341 458 338 c 4
 458 337 458 336 458 335 c 4
 458 334 636 67 658 67 c 4
 675 67 686 186 686 233 c 4
 686 277 650 306 628 314 c 4
 625 315 621 317 621 321 c 4
 621 325 622 329 628 329 c 6
 830 329 l 6
 837 329 841 328 841 324 c 4
 841 320 837 317 833 316 c 4
 780 302 761 258 753 218 c 4
 744 174 724 105 689 43 c 4
 688 41 684 37 684 33 c 4
 684 30 685 29 687 27 c 4
 736 -27 818 -104 863 -104 c 4
 885 -104 900 -94 900 -94 c 5
 900 -94 856 -177 783 -177 c 4
 704 -177 614 -64 614 -64 c 5
 614 -64 546 -178 387 -178 c 4
 176 -178 135 -42 135 53 c 4
 135 148 206 260 330 317 c 4
 333 318 336 321 337 324 c 4
 337 326 336 329 334 331 c 4
 326 339 273 403 273 495 c 4
 273 628 363 705 476 705 c 4
472 656 m 4
 424 656 378 627 378 546 c 4
 378 472 421 403 436 385 c 5
 436 385 566 454 566 570 c 4
 566 628 524 656 472 656 c 4
354 276 m 5
 335 276 240 184 240 93 c 4
 240 61 259 -98 432 -98 c 4
 534 -98 581 -32 581 -32 c 5
 581 -32 380 222 354 276 c 5
EndSplineSet
Validated: 1
EndChar

StartChar: sterling
Encoding: 163 163 47
Width: 1000
HStem: -188 70<412.599 711.805> -169 61<386 587.688> 230 62<242 310 426 596> 646 51<490.345 653.556>
VStem: 310 116<-70.8813 230 292 542.104>
LayerCount: 2
Fore
SplineSet
559 697 m 4xb8
 651 697 669 688 759 635 c 5
 770 504 l 5
 770 504 707 646 566 646 c 4
 407 646 422 467 423 292 c 5
 596 292 l 5
 596 230 l 5
 426 230 l 5
 426 217 426 204 426 191 c 4
 426 -12 411 -82 386 -108 c 5x78
 502 -108 566 -118 623 -118 c 4
 725 -118 782 -38 782 -38 c 5
 735 -174 l 5
 735 -174 708 -188 668 -188 c 4xb8
 572 -188 419 -169 361 -169 c 4x78
 303 -169 224 -174 224 -174 c 5
 224 -118 l 5
 283 -118 304 -46 305 3 c 4
 306 103 309 102 310 230 c 5
 242 230 l 5
 242 292 l 5
 310 292 l 5
 310 321 310 355 310 394 c 4
 310 671 467 697 559 697 c 4xb8
EndSplineSet
Validated: 33
EndChar

StartChar: percent
Encoding: 37 37 48
Width: 1000
HStem: -176 24<576.808 659.775> 225 24<583.149 654.269> 288 24<352.808 435.775> 678 20G<762.17 776> 689 24<359.149 430.269>
VStem: 240 57<390.23 603.376> 464 57<-73.7701 139.376> 489 57<387.794 604.272> 713 57<-76.2061 140.272>
LayerCount: 2
Fore
SplineSet
396 713 m 4xed80
 495 713 546 587 546 495 c 4
 546 403 497 288 396 288 c 4
 295 288 240 395 240 495 c 4
 240 595 297 713 396 713 c 4xed80
776 698 m 5xf480
 776 611 l 5
 238 -167 l 5
 238 -80 l 5
 776 698 l 5xf480
395 689 m 4xed80
 325 689 297 584 297 495 c 4
 297 406 315 312 395 312 c 4
 475 312 489 413 489 495 c 4
 489 577 465 689 395 689 c 4xed80
620 249 m 4
 719 249 770 123 770 31 c 4
 770 -61 721 -176 620 -176 c 4
 519 -176 464 -69 464 31 c 4xe680
 464 131 521 249 620 249 c 4
619 225 m 4
 549 225 521 120 521 31 c 4
 521 -58 539 -152 619 -152 c 4
 699 -152 713 -51 713 31 c 4
 713 113 689 225 619 225 c 4
EndSplineSet
Validated: 1
EndChar
